<mxfile host="Electron" modified="2023-12-31T06:02:46.043Z" agent="Mozilla/5.0 (Macintosh; Intel Mac OS X 10_15_7) AppleWebKit/537.36 (KHTML, like Gecko) draw.io/22.1.16 Chrome/120.0.6099.109 Electron/28.1.0 Safari/537.36" etag="8MhcFNE5oF5tUAKFIHI9" version="22.1.16" type="device">
  <diagram name="페이지-1" id="6KU6p7-6PAXSnrmQLbLD">
    <mxGraphModel dx="3198" dy="1276" grid="1" gridSize="10" guides="1" tooltips="1" connect="1" arrows="1" fold="1" page="1" pageScale="1" pageWidth="827" pageHeight="1169" math="0" shadow="0">
      <root>
        <mxCell id="0" />
        <mxCell id="1" parent="0" />
        <mxCell id="yN8PTlbwVzgZu-tWdrXP-5" value="Struct Node" style="swimlane;whiteSpace=wrap;html=1;" vertex="1" parent="1">
          <mxGeometry x="110" y="140" width="520" height="320" as="geometry" />
        </mxCell>
        <mxCell id="yN8PTlbwVzgZu-tWdrXP-6" value="Feature" style="swimlane;fontStyle=0;childLayout=stackLayout;horizontal=1;startSize=30;horizontalStack=0;resizeParent=1;resizeParentMax=0;resizeLast=0;collapsible=1;marginBottom=0;whiteSpace=wrap;html=1;" vertex="1" parent="yN8PTlbwVzgZu-tWdrXP-5">
          <mxGeometry x="10" y="30" width="140" height="120" as="geometry" />
        </mxCell>
        <mxCell id="yN8PTlbwVzgZu-tWdrXP-32" value="int x" style="text;strokeColor=none;fillColor=none;align=left;verticalAlign=middle;spacingLeft=4;spacingRight=4;overflow=hidden;points=[[0,0.5],[1,0.5]];portConstraint=eastwest;rotatable=0;whiteSpace=wrap;html=1;" vertex="1" parent="yN8PTlbwVzgZu-tWdrXP-6">
          <mxGeometry y="30" width="140" height="30" as="geometry" />
        </mxCell>
        <mxCell id="yN8PTlbwVzgZu-tWdrXP-8" value="Node* next" style="text;strokeColor=none;fillColor=none;align=left;verticalAlign=middle;spacingLeft=4;spacingRight=4;overflow=hidden;points=[[0,0.5],[1,0.5]];portConstraint=eastwest;rotatable=0;whiteSpace=wrap;html=1;" vertex="1" parent="yN8PTlbwVzgZu-tWdrXP-6">
          <mxGeometry y="60" width="140" height="30" as="geometry" />
        </mxCell>
        <mxCell id="yN8PTlbwVzgZu-tWdrXP-9" value="Node* before" style="text;strokeColor=none;fillColor=none;align=left;verticalAlign=middle;spacingLeft=4;spacingRight=4;overflow=hidden;points=[[0,0.5],[1,0.5]];portConstraint=eastwest;rotatable=0;whiteSpace=wrap;html=1;" vertex="1" parent="yN8PTlbwVzgZu-tWdrXP-6">
          <mxGeometry y="90" width="140" height="30" as="geometry" />
        </mxCell>
        <mxCell id="yN8PTlbwVzgZu-tWdrXP-11" value="operator val로 실현" style="rounded=0;whiteSpace=wrap;html=1;" vertex="1" parent="yN8PTlbwVzgZu-tWdrXP-5">
          <mxGeometry x="20" y="190" width="120" height="60" as="geometry" />
        </mxCell>
        <mxCell id="yN8PTlbwVzgZu-tWdrXP-12" value="" style="shape=image;verticalLabelPosition=bottom;labelBackgroundColor=default;verticalAlign=top;aspect=fixed;imageAspect=0;image=data:image/png,iVBORw0KGgoAAAANSUhEUgAAAeoAAAC0CAYAAABbnm8JAAABWmlDQ1BJQ0MgUHJvZmlsZQAAKJFtkL1Lw1AUxU80WmqLCDoKZlFUqpZUca4FRVAIreLHlqZpKrbpI4moODoJzs7i4NJVqIODioO4Cn7+AQ5CFyGLlnhfo7ZVL1zu7x0O9x0u0CKqjOVFAAXTsZIzU9LyyqoUeEEYfQiiG4Kq2SyuKHNkwfdsLvcOAp+3I3zXzuvVfEkKBUvRPXngpv3ir7+pOjK6rdH8oB7WmOUAwiCxsukwzlvEPRaFIt7nbPh8yDnt80nNs5BMEF8Td2k5NUP8QBxJN+hGAxfyG9pXBp4+rJuLKZqd1L1IQcYkphHDBKJ0m/+94zVvAkUwbMPCGgzk4EBCnBSGPHTiWZjQMIoIsUzbZMT4jX/frq7pp7R6l756rGvrFeDsiOJV6lr/GL2fgcssUy3156KCK9rZmOxzqAy0HXje2xIQGAKq9573Xva86jHQ+gScu58iy2JXofMvxgAAAFZlWElmTU0AKgAAAAgAAYdpAAQAAAABAAAAGgAAAAAAA5KGAAcAAAASAAAARKACAAQAAAABAAAB6qADAAQAAAABAAAAtAAAAABBU0NJSQAAAFNjcmVlbnNob3QDi2DgAAAB1mlUWHRYTUw6Y29tLmFkb2JlLnhtcAAAAAAAPHg6eG1wbWV0YSB4bWxuczp4PSJhZG9iZTpuczptZXRhLyIgeDp4bXB0az0iWE1QIENvcmUgNi4wLjAiPgogICA8cmRmOlJERiB4bWxuczpyZGY9Imh0dHA6Ly93d3cudzMub3JnLzE5OTkvMDIvMjItcmRmLXN5bnRheC1ucyMiPgogICAgICA8cmRmOkRlc2NyaXB0aW9uIHJkZjphYm91dD0iIgogICAgICAgICAgICB4bWxuczpleGlmPSJodHRwOi8vbnMuYWRvYmUuY29tL2V4aWYvMS4wLyI+CiAgICAgICAgIDxleGlmOlBpeGVsWURpbWVuc2lvbj4xODA8L2V4aWY6UGl4ZWxZRGltZW5zaW9uPgogICAgICAgICA8ZXhpZjpQaXhlbFhEaW1lbnNpb24+NDkwPC9leGlmOlBpeGVsWERpbWVuc2lvbj4KICAgICAgICAgPGV4aWY6VXNlckNvbW1lbnQ+U2NyZWVuc2hvdDwvZXhpZjpVc2VyQ29tbWVudD4KICAgICAgPC9yZGY6RGVzY3JpcHRpb24+CiAgIDwvcmRmOlJERj4KPC94OnhtcG1ldGE+CsatUmsAAEAASURBVHgB7Z0HeBXF18bf9J6QHkJCC6F3pQtSgwIqvQiiNFEUBcSO5a9i/RAbioKgKL0XUVABFZHeawKBECCkk96Tb87c7ObW5CYkcAln8mx2dvr+ZnfPnDOzd62CgoKKwI4JMAEmwASYABOwSALWFtkqbhQTYAJMgAkwASYgCbCg5guBCTABJsAEmIAFE2BBbcGdw01jAkyACTABJsCCmq8BJsAEmAATYAIWTIAFtQV3DjeNCTABJsAEmAALar4GmAATYAJMgAlYMAEW1BbcOdw0JsAEmAATYAIsqPkaYAJMgAkwASZgwQRYUFtw53DTmAATYAJMgAmwoOZrgAkwASbABJiABRNgQV2OzrG3s8Jj/Zzx+ng3eLoxunKg46RMgAkwASZQQQK2Fcx3Z2Wzt4NN6yYGbS6Muoqi2ESDcFMBG+d4oVl9O8QmFeDHXzKRnGYqJYczASbABJgAE6gcAhUW1A1nrEbs9m+QcnJH5bTEzFLqPPZ/yLtxHdc2/5+ZOQAr7xpwmDYWKNL9/kjeut+Rt3a72eU0FUJ641/ZmPrJDbPzcEImwASYABNgAjdDoFRBbePsAWtbB+Slxos6dIWclY0drGztyqzbzsMPBZkpKMzLKTOtksDK2gZ2Hv7Iz0hCYW62Eiz31vZOsHZw1gkz9yDni59RsO+YuckN0llbAReu5BuEcwATYAJMgAkwgaoiYFRQO/qHoNbQN2Dr4inrLSrIR/icocJfhJApi2Dr6i3D/cOmgDYSwhFzh6ttDJ22EhkXD8Ol/j2wtnOQmmzkt5Pg1qQbvDuPUNO6N+2GmgNewLmPH9HktbJG4IAZIl1XtazEPSuRsHsZavafDvdm3WW4vXcQGr20UfovLngaucnX1PRV5XFyEFJauELd8UpVVcflMgEmwASYABOQBIwKav++U6RwPf/VWBTlZcOjRR8VV+R3T8HK2hqhz69A3M5FSDm+HUWFhWq89FhZwa1RZ6Qc247kQ5vhFNQEhfm5Mh9py6qz0vKLQB8hxElIJx3YgKS9a2DvFQQHv3oy+fVfv0Ds79+gzuNzkZcSh2sbPpDh+hq3WrYRj/1kMZgYWzwoEPE5X/6MwrORRlLqBtkKSm9MdJOBOw6YbxnQLYWPmAATYAJMgAmUn4BRQV2QnQZ772A4BzeXmnHy4S1qyUVC4CpKZVF+joFpWklIwvT6tnnyMCfhshJc6t69RU/kpychfudimS7r6hnQRq6osABFuQVCpRWDAuEvj4CWBYh/JJQLo2KUQxQllj3XPLiHEz6f6SHzrPo9Cycv5Kn52cMEmAATYAJMoKoJGBXUcX98h8BHXhbbS7L+jMhDuLLmXeFXRHTZzcq4cLDsRHopbJw8xMDgkF5o5R3m/3Ww3HPUW3ZnIyomH+9NccfwPk6YvSgNSal6FoTKayKXxASYABNgAkxAh4DRl4Fzk67h0uLnEfHZCCTuXS3nml3qt9XJSAdWNvYGYUpAQW6G4lX3hblZwvwtzN1iLpqcY0CIGkeeQqHJOwU20gkzPCgS9RodXxgmrYSQ3LwiHDqbh8ffTpalkYbNjgkwASbABJjArSJgVFB73vuwMH0HSfNyTuxF2RaduWURkpcSKxZ39YCdu59mwZgZLc6IPCyEtBVqtHkADv71ZX7tbCmndsmFaj73PQpre2c4+NaFR8uS+XFKm3nlNBxrNpL5aQV4eZx1kD+sG9ZVNytfL7OzxyVptGg3F82iMrMzckImwASYABNgAjdBwKhq6t60O/x6TpDF0txwesQ+pJ/fr1NNwr8rECAWndV/agFo3jr802E68cas5LQ6m+ac/XtPlmlz4i7CxtFVzZcoVnc7iLlxWhlOG7mkvWvVePLcOLQFbqEdUVcsKiN3caFY9S0sAOY4uyFhoE1xBQdOIGfuj8phmXta8X1Pk7JfSSuzIE7ABJgAE2ACTMBMAlZBQUFGJ57pHWp6PUsuBCuq3DlZW1dPoa1nmVwQZmVrD3vPQOSnJaAgO93MU6n6ZKs+9EKnFvbIF2vawp5NQMRlfqe66qlzDUyACTCBu5uASUF9d2MxffZB/jYIqWWLvSdzkZNrdIxjOjPHMAEmwASYABMoJwEW1OUExsmZABNgAkyACdxKAkYXk93KBnBdTIAJMAEmwASYgGkCLKhNs+EYJsAEmAATYAK3nYCBoPb397/tjeIGMAEmwASYABNgAhoCBoKawTABJsAEmAATYAKWQ4AFteX0BbeECTABJsAEmIABARbUBkg4gAkwASbABJiA5RCwSEHt2qAdAh9+0XIolaMl3aa8ibBXNL+aVo5sVZa0SdgQDPpkWbnKH/bFOjR9oOT74uXKzImZABNgAkygUglYpKC2964tPwRS3jN1qtUEjV7cABsnzbejy5u/MtLXbH4vApu3q4yiKqUMn/pNULOp4QdVSivcL7QFfBs0Ky0Jnvk1Am2GTio1DUcyASbABJjAzROwSEGdtG+t+HLXSJNnRx/jsHZwNoi3sqEvc4mPZhR/ncsgQRkB9i5u8AzW/aKXdhYHVw84eXhqB6l+rzqhsLY1+tPpapqq8FCdPvUba75KZqSCf+a/h6/7NzYSA7j7B4HO2ZSjsimNMWctWNs6OBiL4jAmwASYABOoRAIGv0xGr2fFxsZWYhXmF+XgUxt1x38pM9BvgWsLa/qaV70J88RHPc7CqZYQPEVFuHFsO2K3fy0/e9nwBd2Pd1AhmZdPInrF62U2wMnDC2Tu9QisI9MW5OZg46uP4+rxffBr2AIj5m1C0uXz8KrdQNZ7Yc92bH37KZnWv3ErDJmzEjb2QmiJNuVlZyE7NRk/jLmvzHpNJWjUa6A0ny8c2hZZKZrPa1Jae2dXTN54Ajs/ew0nf1mOAe8sQL1OvTXFiLr3LPoEh1Z8I48DGrfGsC/XSz+dj7awtnNyxuiFv8PNL1DGZyYnwNHdE/MeEOcnHGnL6QkxGiEtBj6p16Px07ieKMzPx6R1R+DoVkOmU/4V5Ofh6wcbKoeYMWMGunfvjvDwcMycOVMNZw8TYAJMgAmUn4BFadQ5CdE4/+UYJB3YYKAhWhVrybauXvJb2SmndqBGqzCZrqggX347+8qadySByO8ma45Xv2UWkYdmL4ab0Bx3zH0VK595GNnpKeg5/QOZ18pag8hJCLI104bh0v6dCOkcpmrP902eJdNtnjUBh1Z9CxKCN+su/veHLKJ+l746RSlC+cLu39Bh7DQppI+tX4wlY+/HlWN70fGJF1RuseeOY9GIDjj7x3o1TCmsxUNjpJDeu3gOtr4zRQpe6+LzVNK4+gbit/efw64v3oB7QDDqi3Mmt3hUZ3w7sKUclBxc/rX0LxjcWskm97bFlgVlrxPJB0yACTABJlAuAhYlqMXTHwVZafLLWqbOIvG/VciJv4TEPaukmdsxsJFMWpibLT63mVPs13yZiwS4Oc5faM25mWkIbtMFbYc9iWyhxdYIqqdj5j6yZiFiTh3EnoUfyXpr39NNFu0X2gyXD+/GpX07ZFx+TpY5VZaaJjczHTnpqahzbzfUaXc/pv5+UQjKPqjbvjvysjKllt0kbKhQ4Avh7OmLTuNfFO1PB5mjm/cfJcumuIykOJE+w6CuBl37yTIOLPsKF/75FbHnjhmkiT17BBG7tuDE5p9BGjPVT47OLzcjTcdPbdJ227Ztw+bNm7Fu3TrtYPYzASbABJhABQjc+knVCjRSO0t2TLg8LMi8Ifc2ji7a0eX2k8mX5rWLCgrgFhAk8+cJYXT97FExf+uulnf1hOZ73GnxMTKM5qpJe7Z1cELC+dNquozEOCEwbx5rQuQZYXZvicJC8YlRYdYmwexdrxESozTn7yDMz2SKVtpMDaA2GxPMauOKPTQISYmJUoOThVlff8FZwoUzanxBbm6pc9lqwmLPsWPHQBs7JsAEmAATuHkCNy9Rbr4N5StBCC1Trqg4zlp8z1p8MtosR/PJJAhTxDzs6qmDDPI4uhfPx5LA1HOkSZKG6S0WcynO2ctXauTKMe27du2KevXq4eDBgzh9ukSoa6fR90cd+EtoyjMR5OCIM9vXoJ7QaO2dXBG+Y5NMmiPM8zRYMNZm/bL0j5OEsPek+fZi512vpP1KmMJSOTa2l/PyRiIaNGiAzp07Izo6Gjt37jSSgoOYABNgAkzAXAKWZfoW89BW1jZCwdU0S/rFsbkuOyZCCl3P9gPlK1pWQmCb4+JJexWvJLUePF7OPQeI15l6zvjQnKyIP38Kte+5D7VadkD7x56HnaPhHPXIkSMxdOhQ9OmjMR+bUzCZnYkDLXTbIRaPObi6y7aF79oss4fv2Ci1+fuf/Z8U2LQwrPfMj2V6SkDsbOzs1flp8tNGLnznZjkv3eP52Wg9ZAL8GrWQ4eX5l3kjEQ27PyRXydMiN23Xo0cPeb6jR4/WDmY/E2ACTIAJVICARWnUtUe+B6fgkvd3G87UzHFGfmve+7pF+blyJbhnm/7wbDsAWVdO4/KyV8vEskUsBBsydxW6Pv2G3CgDrXQ2x+3+7gMMnrNCbppV37rztVSGk5OTLCohIcGcImUaqr8gLxdpsVeliTvpUgRqBNdHUpQYjAi35/uP4RPSFC0fGSs3CqP0e3/4lLwYNf8XaSqXB+LflK3npHfpxDCc2rpC/qBJ8wGPynnutLhr6gpwJb3u3tCKcWjlfHSZ+ArGLPpDtm/eg6FqFnd3zZRBWppmLluNYA8TYAJMgAmUm4BFvZ5V7tZXcgaar/aqHYLk6Eix2CrJ7NJJ8/UVi8qSos5LU7h2RlpNvX79euSL+eThw4ejQMyFV6Yj8zP9OEmWeMUqJeZyuYqm96Rpnnv4Vxvlq18/j+9VrvymEi9atAg+Pj7y1Sx6RYsdE2ACTIAJVJyARWnUFT+NyslJ89XXTh4sd2G0wjou/ITRfPfee68wYVth48aNlS6kqUJ6R/r66cNG6zYVSHPbo7//E9Fitbp7zWDQqndFEzeVpzzhtACO5uNZSJeHGqdlAkyACRgnwBq1cS6VFkoataurK1JTUyutzJstiLTwB9+YB8+g+vKHTfb/9IX8cZebLZfzMwEmwASYQOUTYEFd+Uy5RCbABJgAE2AClUbAslZ9V9ppcUFMgAkwASbABKoHARbU1aMf+SyYABNgAkygmhJgQV1NO5ZPiwkwASbABKoHARbU1aMf+SyYABNgAkygmhJgQV1NO5ZPiwkwASbABKoHARbU1aMf+SyYABNgAkygmhJgQV1NO5ZPiwkwASbABKoHARbU1aMf+SyYABNgAkygmhJgQV1NO5ZPiwkwASbABKoHARbU1aMf+SyYABNgAkygmhJgQV1NO5ZPiwkwASbABKoHARbU1aMf+SyYABNgAkygmhJgQV1NO5ZPiwkwASbABKoHARbU1aMf+SyYABNgAkygmhJgQV1NO5ZPiwkwASbABKoHARbU1aMf+SyYABNgAkygmhJgQV1NO5ZPiwkwASbABKoHARbU1aMf+SyYABNgAkygmhJgQV1NO5ZPiwkwASbABKoHARbU1aMf+SyYABNgAkygmhJgQV1NO5ZPiwkwASbABKoHARbU1aMf+SyYABNgAkygmhJgQV1NO5ZPiwkwASbABKoHgTtSUNtb26ONV/Pq0QN8FhZBoK5rMPydfC2iLZXdiGY1GsHNzrWyizVZXnPPxnCxdTYZfzdGVKdnlo+DFxq41b2pbnS1c0FX/w7oUbOLWk5H37bo5t8Jvo7eahh7NAQsSlD36NEK/fq319nuvbehQV8Nr/cwZjafYhBOAbau3qg96n2x9zQab8mB3aa8ibBX5lZqE10btEPgwy9WaplVXViTsCEY9MmyclXTY9r7oK2irotfe3za7n8VzX7b85m6dhp7NMA3nT6ClfirChfafQBGfrNFp+gnGz6GiQ1H64RZykH3qe+g2zNvm90cj5q18djiHaD9zbjSnlk3Uy6169HvfoO7f5DZxdzsveLl4IlF932GGvbuZtepn3Bpt68xq9V0dPK9R41q7tkELzR/Cmt7fM/CWqWi8ViUoH7xpeGYNm0wnn9+kLo99fQAnSbbWdvhsZCh+OnCap1w5cDG0QVOQU1hbe+kBJm1d6rVBI1e3AAbJzez0ldFoprN70Vg83aVWrS9d2241C+5Gcwt3KfbGIQ8/b25ySs1nU/9JqjZtG25ygxs0Q61WrYvNQ89cAd+/LPRNBsu/4pAZ3/QqP5OdKauncmNxuL3a38hNS+tSk7Lu05D+IY01Sl7yflVGFj7Abjb3b57SadBWgc1xf0VKO4zc52jhydqBNWDk4eXySx12/fA1O2RcPHyM5qmrGeW0UxmBlL7vOs2hIObh5k5AHPulV4zPsSktYeNlhmeegGRaVHiOTzMaHxZgfVca8PT3gPP75uF949/oSZfGL4UY/5+Rh438TBU0NSEd6HHogQ18T90KAJ9w15Vt4kTPtXplgFBvWFjZS0ePn/rhCsHOQmXce6TgchNuqYE6exJgFs7GJrlrGxsACuhdYiyK+LsXdzgGRxiMquDq4e42Y1r+V51QmFta2sy781EJO1bi4jPRposgiwPVtbi3PWctZ2jGOwYctJLVqFDOlef+o2N1ksF/jP/PXzdv7HRsklzINalOY/AOkajbR2dYOfkYjQuIz9TXlPjQ0cZja/KwKq6doJdAnGPd0ssi1xvtPll9QPFm9LU3PwCQde0MXcw8Rhu5KZieL2HjEVXaRi1y9UnwGQdyyc/iBV6g38lcVn3oal72NrOTj47rGyMPzvKemYp9ZvaU7vsnIzfi7Fnj+HLsPqIP3/KIDu1l3iU5kzfK86wdXA0mfXnyLUYXKcfHG0cTKYxFeFipzmXa5mxBknS8tJRUFQAZ9vyKVoGBVWzgKqRDlUIqZVXM0SkXpSdqV9N6PRVsLbTXDgXFz6tCmt77yDUmzAPWVfPwqmWEABFRbhxbDtit38NKxtbNHxhrVpUg2eXSH/m5ZOIXvG6Gm7KQyPtYV+sg3LBF+TmYOOrj+Pq8X3wa9gCI+ZtQtLl8/Cq3UDWe2HPdmx9+ylZnH/jVhgyZyVs7EWbRZvysrOQnZpsqqpyhTv41Ebd8V/KPIW5WTrC2rvjUHh3GYW8G9dBbIrycwWLb5BycgfcGnVB4CMvqXU1emmj9Mfv+gFJ+40/8CmBjZ09pvxyVgrZo+sWqfnJQyNzeqBsen0cBryzAPU69dbEi3Pes+gTHFrxjTwOaNwaw77U1EEctYU1PahGL/xdffBkJifA0d0T8x4QXIudUw1vTPk1HDa2dshJT5X1XT99GI98uAS17+kqU9FDfOrvF6V/xVP9EX/htJIdx5NPo09gN/XYXE/Hjh3x2muvIScnB8OGma9lVPW100KYEsldSLsk99r/SusHYpged01j7hWD19Tr0fhpXE8U5ufD3tlV9MN2uPrWlMVlp93QLlb1n0g+g9aVtI6k/9vfolarjvhuUCu1fPI0HzAaPZ5/D/Mfbga/0BYY8O73on2agVh6wnUsn9xPvZ9oaqDVoHEyPwk1bWFN9+nQuavV+zAnIxVZKcn46Ykean29XvzE4B6m+5auecWNW/af9CZEnhV1P6gEw9gza8LK/fK5sP7FR9V05Hnkgx/hK85l4dC2aDv8SXSe+LLQHzQDgMuH/sHGV8aq6ZVrnQLofLSFtXb/ZibFw9nLVz6XLh/8W+Y3da+0eGgMuj/3rlqHcq8cXr0A/35XMrV0UvSvjZUNaG3H2ZTzanpzPI7WinAvMpqcBLWTrelBgtFM1TzQ+BDwNp5069YhWLf+LXWb8szDOq1p4F4Xl9KjdcKUgwtfjysRrlqasXKh27p64dLi55FyagdqtAqTGl1RQb4QYiNwZc07spjI7yZrjle/pRRb6v6h2YvhJrS8HXNfxUrR1uz0FPSc/oHMY2WtweskBMqaacNwaf9OhHQOU7Xn+ybPkuk2z5qAQ6u+NTlqLrUBJiJzEqJx/ssxSDqwwVBzFQ9fGqDkJF4GDWjyUuLg1UkjYNLC/5Pnf+PoNmgE/Ah5nHxwk4maNMEFebny3GvfqyvoSICTQL18eDc6jJ0mhfSx9YuxZOz9uHJsLzo+8YLavthzx7FoRAec/WO9GqZUSg8Q0g72Lp6Dre9MgaNbDVgX81XSUNjhld9i3QsjYefojDZDJsioLW9MxLcDWyIjKQ7xESeln461hTQlvJx+RT58/Bx9lCLN2ivtUPZmZRKJqvraCRELfuKzEw2aU1Y/0Hw2XdO/vf8cdn3xBtwDglFfXLfkmg94VArpPQs/wrYPpsHeyfgitSjBkh7ileGihHBxcHU3uD/qtLsfuZkZoGvv4fcXyz31/W+zp8K5ho+4tmao1f8r2kvXFg065MBYjQG6Pv2mPPrlrSdxYOlX0lJAgz1tZ+wepsEkXUfbP5wuky6b1Fcer5o6UDsrjD2zEi6elVYlnYTiwEdMIyRdOgffBs3QZdKroHvi5/G9sf+nz+Vgs2azErP94pEd8cvbk2URyrOGDmgwSoPhS/t2YPXUQTKe/llrWc5M3Ssnf1kuz+HCv9ugnB+d43+LPlbLIU9cdoI8pmusPI405YeCw+RUTKrQno05Evx9A7vf1By4sXLv5DCLE9QpKRn4d/cpdTtxPFKHr7dYcZiYk6QTphwU5oibNst451OaxP9WISf+EhL3rJKmKsfARjJrYW620Cpziv1ZQkCJYyHAzXH+YjSem5mG4DZd0HbYk8gWI3HNnFaJmfvImoWIOXUQ9HAj83rtezTCzC+0mRRgdENRXH5OljlVmpmmSLBIk8LWVIbY7fOl1SHlxB+wr6HRkFBUWHz+uVLLJxaSR2GBqWLU8AShndJ8JZnSn91+QS6Mo4cpuYidm9EkbKgwHBTC2dMXnca/KLilw1pMOTTvrzE3UxwJ07ysDLVMxdOgaz+p5RxY9hUu/POreIAdU6LUfV5WJvb+MEdaM8iK4S80dHL0IM/NSBOnVogC0a/kp03fJeZotEM/p/IJ6oiICGzevBkrV67UL7LU46q+dmjAYexeKasfqNGxZ48gYtcWnNj8Mwry84Sg7iPPJaTrg8i6kYhDK+cjfMdGxJ0/afQck3KSK22O+vzfW2UddTv0RG+h2dK1RWZ5v9DmSLx4BrXbdhVmWidkJseDBnQhXfrKe7JhjxLTOwkdurbIKqDv6D6MPvwvIvf8jr0/fiosW5n6SWDqHqbrSElPmjgdU13aztgzi+55GsDSeTz+0994Yum/UnN2FlahqAN/oXXxIJO0YRpY0bRaYUEBOjz2vFp0VkqS6AvDZ2HTB0fINDSgvX72KI6KgbG+M3WvFIn7XHMOufJeJT9t+twKhTUsqyAb5RnUPtFgBH7rsxzdAjpi1uEP9ZukHs85OR9BLjWxqdcSvN5ymhp+N3sszvR98eJ1zJmzxmSfXMmIQaCT6TkokxlFRHZMuIwuyNQ8kGnh2c04utFI8BaJG8gtIEgWlSeELd0c9i7uatFXT+yX/rT4GLmnuWoy5dLDJeF8iek1IzFOCK5b0yU0ECnITJHtyc8QPMR53Ky7tG8Xglp1Qsh9feUq4+C29yFfPLRoAEIPSQeh8dINr7Ci+oiVMcGs3xYa/KTERKnByUIQ6y84I3On4nKESdZFmPvK42o6+cnkVzKMr28wVVZ8fDwWLFhgKtpo+K24di5nXEVLr6YG9ZvTDwkXzqj5CnJz1XUBnkH1dfoh8eI5BDTSNUlTxppiYV6iENaV4Wg6iDRnEtTBbTrLa6tBt/5w8fHHyV+WwauOZvqDtErl2rpxLQp5GaYH7Uq7lPtQ22xM0yra2ielNXYPK2WUtTf2zArfsQndpryFeh17C+tFLVmEHNSK+zB85yYxyP1MhpHJWnFxESeEuTxCOTS5p8ViNFhQBgw07aTvbvZesRVmbycbR0SLa8xct+LiRuyLP4yXWzyL6c0m4/F/njOa9anGY5FXmI/p+9/EmZSyz9doIdUs8NZIhUqEdj7tIhq6169YiWIUaMoVFcdZ29qjbN1RU4qcTxb5UoQ5TdvEpNTh6F5D4xWanL6jES0JMG+xqEpxdFOSRq7tunbtinr16uHgwYM4fbpEqGunqRI/8dCaPjCnjohdm3Hf5NfQ4fHpuCg0hrodeiCodSc5F0f5c8S0AA1SjLEqq/ykqHB40jx/sfOuV8JNCRMmgBKvMZ84J32TpnayOq5ByC3MlQuhtMPL8vv6+uKhhx5Camoq1qwxPcjULudWXDs0N02ra61FPxYKa4XizOkH5X5Q8ij75CuROgvMaMWxMUcsaWWwMTdkyBC4uLhIK0Rysu71biw9hSUKUzEJILpHaJ1Hu9HPSg00XFhqlEWcpOGT6bo8ju5D2vybtFaz0QDPQFM1cg8rGWigTo4G3sacsWcWacOkiXcc9wKykhNRKDTZLuLeIeGaJtYHpMWRAGyHbe9NRWrsFWPFmgyLPrRbWvhoPQFZrYiboSv9XiHN2tgiU6WcQGeNBe5CuvE+VtJp77OFBk6C9/uIZZjd9lUp6Ekr13e0AHJxxAocSjyuH3XXHluc6btGDRe0b99I3Zo1q6PTOf/FHUJ9tzpGflBBzKwJkyvNvZKzsrYtvtDM0xSzY8TITTzIPdsPlK9oWQmBbY6LjzwjF7K0HjxemrECxGtFPcWrDeY4GsXXvuc+8VpRB7QXJi2aV9V3I0eOxNChQ9Gnj8b0qB9v8lg8nCWPYmEr/VpzVCbzFUdkXDoqVn07wjW0g1z9XdpNq5RFo3QafNDCuZOblyI1JlouSKIHBzl6kNLD7P5n/ycFNs059575sfrqC9VBc9pKXeSnTeYVD2SaV+vx/GxpFvRr1EKGl+dfXPgJoX2FygeXsRXLnf3aVejhEBoaioEDB2LUKI0J39w2VfW1cyRJY5bW/3GgsvqhtPZH7t4m5n+90fKRsajfJUxe+/rpSduihWR74g7oR8njMWPGyGuaBqDmOlpIRSvQ0+NicHzDj/IaoymNFKE5R4v1DyTgWg0aLzTUXvI+bNjjYSnMlfLJxCyvJaGxWomN/BRG7vrZI9ISRIvNer3wkUmBq5Slv48+skc+O2i9Bb2ipS+wTT2zki5FyPOg9Rtk7qb7Jin6giz+2IYf5L7vrC/l61ckdGlwQszJ0bobzf1hJ49txCJaOqbw079ppmAe+egn0HvubYZOlGnK8+/S/l2yvKYPDFdN9Nr56TVGErKX083XqJX8ybkaS569jfFnLC1SU6ahlDx3+15zpVoQhZCQQLw3e5zaoqzMHDzyyFvq8T+xe5Ek5hLpPc2lkevUcK8Og+B7/+Pqcd1xn0t/3I7vkSmETlmOVj7TSnDPNv3h2XYAsq6cxuVlr5aVDVvEQrAhc1eJBSlvyI0y0IIVc9zu7z7A4Dkr5KZZ9W04N+bkpBmlJyQkmFOkmqb2yPfgFNxMPW44U8Mq8ttJaliJx3B0nXHxiJzPrzXoNZks/q8loFe9ynLJ0ZEgbZcWzgW16SQeEpPkXCfl2/P9x3KxDD3kaSNHD9u9P3wq/aPm/yLyatYNUMCUredk+NKJYTi1dQXooUGLmWgum7SO0l49MaYRHlzxtWhTZwz5VKxREE57pSz9Klk7n9YYv3uajCvPP2N1mZO/qq+dZHGfbL3yJ8aK9121tZOy+sGw7SXXx4ktS0GDUhpskSPt3EFrmofCehevnN8UvZ0OdRwJSWXRHU0ZmOvIHExztXRdXTn6n5w3v3HlosxO19CWNyeh39vzxcrvhWqRpG0r7qnNp3WsKXRtUb6v+zXCzs9eF29urBem6DelwCdrR6GZa1SofBqckpYf2q0fQu/vj8RL4aCFZYoz9cy6fPgfsY6iFU5uWSbLaCbmlq8c+VdmI3M1rbcg69SjC7bJMLrud3yqeSZ1efIVeW8pdQz9bLX00hsU1L8nRT817/8oHnj9S/WtE2UuXcmj7I1dv7Q+odP4mXLgQoOXo2u/l290UB5abDg6ZAgWRSw3+vaNUq6pfWquZkoi1E1YCsWrfNouQEw/kaBWFqtpx93NfqugoKCSu1CQ8Pf3R2xsrEUzCQu8H881nYgBfzxmMe2kOUev2iEgQUVmLXMdjYB9xWKWpKjz8mbVzkcPtPXr1yNfzOsOHz5cLIQy1yivXYrl+WnVLa1qzRJzgSkxl8vVQNKCaJ57+Fcb5atCP4/vVa78phLT9RTiWgfP73/DVJIqC6+Ka0dpLA1AVndfgBG7JiMmS/e+vpl+IHMzLTKitQf67uduX+HXKzt0BtJKmvbt22PWrFmIiorC1KlTleBK29MKddL4E8TcOQnQ8jjSSEl40ytXp39bhV1fvlme7KWmregzi54P9JsD5OicyCRdHkf3S7tHn8W9YtN+lbE8Zein7Sh+Tey9ti+j3+9j5FSRfnxZxzQVs6TrF6jtEoTzYnpGGRy/2+Zl3B/QCaRxD9rxhJiu0RFNZRVbrePvSEFNPUIv2mcX5FTrzlEeajTvuWTJkmp9rmWdHM1tj/7+T2nmdK8ZLBcwkSZOq8Arw9mJqRJ6MNA7nNXN0e9M5xfl3bIHH9WXV5gnVgwYPmhnzJiB7t27g/bnz5+3CNRk3SErwbWTB+Wv25GwX/J4d2lWr8wG3spnFv0KnxwEi2uaFnXSQrTVzw2ulNMhQUs/OkULvirqSCv3cfSSU5jK67a1nAPkNRqbHS/2JWsqKlpHdcp3xwrq6tQJps6FNGpXV1e5SMlUmrslnLS/B9+YB1p1nJ4QI94r/UK+hnW3nH91OU97e3vYCi0vM9Nwmud2nSNZd2jqit4/jhE/kLN/yWfltvTcrrabqpcWddZp111OERzfuARnflstp4xMpedwyybAgtqy+4dbxwSYABNgAnc5AYtb9X2X9wefPhNgAkyACTABHQIsqHVw8AETYAJMgAkwAcsiwILasvqDW8MEmAATYAJMQIcAC2odHHzABJgAE2ACTMCyCLCgtqz+4NYwASbABJgAE9AhwIJaBwcfMAEmwASYABOwLAIsqC2rP7g1TIAJMAEmwAR0CLCg1sHBB0yACTABJsAELIsAC2rL6g9uDRNgAkyACTABHQIsqHVw8AETYAJMgAkwAcsiwILasvqDW8MEmAATYAJMQIcAC2odHHzABJgAE2ACTMCyCLCgtqz+4NYwASbABJgAE9AhwIJaBwcfMAEmwASYABOwLAIsqC2rP7g1TIAJMAEmwAR0CLCg1sHBB0yACTABJsAELIsAC2rL6g9uDRNgAkyACTABHQIsqHVw8AETYAJMgAkwAcsiwILasvqDW8MEmAATYAJMQIcAC2odHHzABJgAE2ACTMCyCLCgtqz+4NYwASbABJgAE9AhwIJaBwcfMAEmwASYABOwLAIsqC2rP7g1TIAJMAEmwAR0CLCg1sHBB+Uh4O3giVD3euXJwmkthICPgxcauNW1kNbcumbYWNmgnU9r9AvqBScbx1tXMdfEBG6CgEUJ6qChb8K1QbubOB3TWYOGvYW6476Qm4NvXdMJOcZsAm+1nikeeL3NTm+pCa3rB8OmfUvdrW1TneY6+NaBd+cR8GjeC1a29jpxVXHgUbM2Hlu8A7SvCuclBlmL7vsMNezdq6J4iy3ztZbP4eN735CC2t6m6vvRYkFww+4oAhYlqJ3rtIKDT50qAZh2ZjfSzu4GPXBtXTyrpI7bUejWX2dj6NCut7xq0qRbezXD8sj1t7xuUxX6dBuDkKe/NxVtMtx+zMNwmDYWDs8/VrJNfUxN79drkhzgebTsDf+wp8Q1WnnCs277Hpi6PRIuXn5qfeRx9PBEjaB6cPLw0gmvrIPw1AuITIvCYyHDKqvIW1JOwxmrxWCpZ4Xruj+gE76PWI5n976GlNzUCpfDGZnArSRgUYJaOXFrOwfYuhoXplbWNrCrEQDaG3M2zh6gTd+lnPwTN45s1Q82+9jW1gZ16/qD9sactbU16tTRfdhqp6M4J6fSR/B+fjXg5eWmnU0eh4QEwsrKSidcObCxsYa9g51yaLAPDvaFi0vpJj6Kp3SlOWq7dhvGh47CwcRjiMtOMJqN+sfeMxDW9oZ1U//auZtmRXlN9T9gBXsvKtfJoF5rO0cR7mwQbk5AUVIKMke/WLKNe1XN5tGiN24c3YbI+ZMQ8dlI5MRdVOPM8Vjb2sK7bkPQXt9Z24m+E31rJfrRlHNw9RAC2/j9YO/iBs/gEFNZ1XCvOqGwd3ZVj8nzc+RaDK7TD442Djrh5h7QfWaqHyncWN8rZVP/lnYPa8o1vOatbOyERcP09a6Ub2pvb22Pa5nXTUVzOBOwSAKGT47b3MwabfvBp5tGm8lNjkHUjzNQmJspW+XdaRh87hstH2wUkPjvCiT8u1zG2bp5o86Yj2Hr5iOP89MTcfnnV5CXGiePb+bflGcexiOPdFIF1ZYt+/DF5xpNctHimfAWwtWxWJDl5eXjxZnf4fTpy7LKYcO7YeLEB9W8hw5F4NVXSrS+b+Y/B1dXJ9jZ2apCesGCrViz+h9s2vwOHIqFcFFREbb9dhCffrpWlrt23Ztwc9MIpSeeCANt+fkF6Pfg6zK+W7cWeOXVkerAIjIyBs8+85VMQwkmiDaRJn78eCTatGkg8xw7FinbLg+K/7Vt2wBjHw9DkybBGDXyfSQlpcmYFp5NsObSFu2kGr+VNQIHzIBbk65qXOKelUjYvUz0mzVoCsKlbmsZV5Sfi6sbPkRG5CF5HDp9FXITr8DRv77sYxKIUUteQFFhgYyv2X+6LFd5wCfuXYOEv3+CW6MuCHzkJbW+Ri9tlP74XT8gaf/Na/z5GUlwqhkqy1TaolZWhqfbM2+j1SNj1Wv25Jal2Pn5LNjYO2DKL2fV3OOW/Sf9CZFnsXzyg2p4rxc/gVdt0T+i/y/s2Y6tbz8l40jTHvbFOngEaixQBbk52Pjq47h6fJ+ad8rWc7h++jACmt0DGxJuooyfxvfCjSuagcbJ5DOgOdu6rsE4m3JezVeWxymoKWoNfh02jhrBX5ibjfNfPQbqT7KKBQ2ZpU4PZF4+gSur3pJ96N1xKLy7jELejeuw9w6S6WO3f4OUkztklY7+Iag19A3V4lVUkI/wOUNFXBFCpiwSgzdvmc4/bIqwbExBYV4OIuYOL6u5arydteZxVyTKY8cE7iQCpofxt+ksbJw8cHXdbMT8Mhf2QnP2aNFLtoS0KJ+uY5Bx6QguLnwa6ecPiJt+pGqGrNnveaFJ18A18eCn/DaObqg5YPpNn0WDBoEYOLAzwsOvYsrTX0gBPGBABzRuHCzLJo3WydkB69f9i9dfW4TCwiJMfmqAjKO8kyb1w7lzVzBh/Bz89NMfuOeeUDRrpnm4UiLSxP39PZGWloU3Zv2A2bOX4eoVjZa6e/dJmW/woP9h9z8n8cCD7UBlknt01AcYNPBt8ewtworlO6V/yOD/yTgq86WXRyAzMwczZnyLdWt3o379mnLAIBOIf9bWVqC2h4bWwryvNmH6tG/w33+nZTQNHKZMeQjr1r+FDz+aiIAAT6xcsQs3bmTIeNJK3O3cEJVxRSlO3fuIeVwS0kkHNuD8l2NweekryM+4IeM97xkghXTCPz/j0g/TZHjgIy+rmhVp7DQ1cWX1/3Bt48dw8BOm3+DmMi89xN2bdUfcnwtx7pNBMn9W9CkZlxb+n9B0R0ittzA3S/rpOPngJrVdZXmsPN3hNO9NdXN4aYKaJS8lFg5i8ODRso8aZo7Ht0EztBr4OGLDT2DF0wOk0Gw+YDQCGrcGCdZvB7bE9g811+iySX3l8aqpA3WKdnL3xJppw3Bp/06EdA5TtfKHZi+Gm38Qdsx9FSvFQDI7PQU9p3+gk5c09VqtOiJq/y5QuXt//BT52VlqGsUaEuJWVw0ry0Pz80HDxHWXnyP7KeKzUUg5vl0zEBUDsVqDXkVBViou/Tgd8X8tgXPtFvBsV3xO0nJgi5zEy/IezkuJg5cYfCvOv+8UOZg4/9VYKYDjdy5WohD53VOyX2mwEbfje+mn68tcZy3a9lBwX5n8zI1wc7NxOiZgEQQsTlBnXT0rhPB+pJ7ahdykq3Br2EmCcmvYWe5jt30twq8hdttXmnChTZFzqtUEWVdOgR7alD8j6hgcazaUcTfzr0/YPTL7Rx+uwPnz1/C+EKTkwvreK/f0j7To+fO34MCBcOzff04KRQofPOQ+2kktdOzYPqgd7IeCgkI89lhvGa7977mpX2HfvrP4a9dx7NlzWgrgTz5ejeDafnhaPOQdHTVm84YNg2S2nJw8ZGRkS392sT8rK1ceh4TUhL29LbZs2YuTJy7KtmVn56J9h8baVUr/1/M2Y+PGPTh1KkoK9ElP9gNp6/3FYOS40LCfmvw5Ro6YjUWLtolBSKHM4+VQQ+4Ts5MNynNv0RP56Umgh2xBVhqyrp5RpxzcGnUW1pFsJP63WpqPk4RGTGZwe605X9KuaTCWdu5fqTG51tfwp7LIOQttzkFoY6RtZ1w8rKm/qFCWW1Qgzl88yKkO2sql/ebmI//vg+pWcPCkLJsGh87BLWRdAX2fkeZ8igh55gfYefhr6jfxv0nYEBmz/cNpiD9/Cr/NniqPm/QdKve5GWnIy9ZYi3IyUkHHJMC13ZE1CxFz6iD2LPxIauW17+kmo/0btkBuZhqC23RB22FPIjsluXhO21M7O7JuJOKXt55E7NljOLD0K6QnlJh9CwWrrIJs+Dn66OQp7YCsIdRncX9+L5mQtYsEJ2m3ypRE0v4NyImNRNK+tSjITlfvYaXc2O3z5T2ccuIPMRivqQSLtGmwdnARvMXgTAjW5MNbRJxG+yVtnfqUHA0SZP+KMHNcS8+m2PXAOkxrOgnzzi7G9ax4c7JxGiZgMQQsTlDnxEWqcHISo2EvNCxy0uwlHix5qZqbjLQ0Mo3ZumseMjTSz75eYr7LuX5BzPtpTF1qgRXw+Hi7S6F5pVjLjYu7IYWtr0/JalnFHEzFn4+4Ks3VNO8bIDRlcjTv7C+0UtoiRHzUZV1zPOVXhKzMIP55eLhgyy/vYtasR9FIaO/u7hoztyKwlXTG9oG1vGXwyROX1OiEhFRhKndSj8lD2viuXcd0wmgOnjRbsgzk5RUgNzdPJ54OFE0s0DnAII4sIlnXSky62gloTjMvpURQZMWEy2g795L58ezYC2qWorxs8eDWnDdNYdBUh2toB9Qd/yVCn18Ol2Ihrma4CU9RRibyVm5Vt/wdGhNyjdYPSIFzZc27yEuLR/Aosta4SvNsQabGUmCqWhdvwUcwVkzNaXHXUFhQAFefEuFkKq8SfvXEfulNi4+Re5qrdhRaNmnLRaIst4AgueXlZOH62aOwdym5LinD1eOa/DKz3j9bYfamV5SiM67qxZg+tPeqJSMzLh4xSGTnpunH7OJ+pQR5YvrKxsVDTUv3bEFmijyWlhZxHoqL++M7YRaPkdMYodNWgN4CESeqRFd4f+rGOYz662n8fu0vPNN4HL+WVWGSnPF2Ebh5SVbJLdd+dUqjOV2SNZCWRg8nmovOT0uUC8ZIEJOfHI24yTypOAdhKtXXqIoK82W0sYVISj79fWJiqhRcgYHeuHYtET5CQJPJmASf4jw93RQvQoRpmjRs0nZjhVAnw+3s95YhNtZQ+1QykXas754R5kyqZ9jQd5GamokwodmTwDb23CLtWdvFXBOshCMT+8GDGmFI7aZz0Xc0r63tvvl6M5Yt3SHmpfugd682uL97S5nvt18PCNP9n1KrLhQabHx2Iuq4arR77fyFQityCmykHaT6CzJTpWlbCXAsnvfNS0tQgqRgKznQ9dF6BNooX9CQN+Df+0lhEp1ckkgIRdLEKtORUKZpFHExIXr566g3aT7qTfxaaoqkRZbmMhJj5TVL88gp16KEgA6AtY2NjlZLwpacrYPuIEott9iKoR4LT3aquJbEuaZcj8bqqYO0owz8uUJTN+UCnTUDhgvpUaaSGITTuhFypFmnhe/RiaeBDDnHgFAxWDsn/XaeNeWctDwo4x9Zyi4tfl4uQvOi+eyOw8RgrK26hkHJblXO16oKigpwNTMGc09/hz6B96ONd3PsiTuoFMd7JmDxBCr3qVYJp0sLVVzqtpHmMnuvIKRH7JWlpp/XaDj+fZ4SK019QXtyacXx2TERwizaDC712sr8LnVbCfNbiXZGaclcRgLfq8MgzYpkYWYry/2546hM8tJLwxEU5IOXXxkpj5VwOiBB+cS4MDRvXhft2jXChQuah9mGDZoH2etCK6YV485iLvvR0T3RuUszWUZp/y5FxcoBQm1h+iYBPX7CA0aT07xx9+6t5KptKp8cmehpsEDmazKV00Iz0sQPi4Vs5riUlAx8+cUGsYDuLTlvToMSaneNGiW8/os/hA6+bQ2KSzm1S1o/fO57VK7ApoGXMrdLfUmDJM92j0gzqVf7wXKAlRtftqBQyqHBGT3QC3IyaKJdp/6MS0flQ560blr9rSw600lk6sDBHtYN6+psNDAkEzu9lkUL1vJSE5AuplbIMpBavADKVHEUfm7HBhnd56U50iwd9spceayE00H0EXGNCKHb8YkX5CtaJgW2zFnyLz7yDPxCW6D14PFy3jqgaVv0nPFhSQIzfB1F/5Hp+3K6+Rp1ZtRR2We+PYVmGtxMLhqjtSJk0aJ+oXtM9q+YnqA1CTTQoakoc5znvQ/LRWZURk7sRZlFvw9pvYB7sx5ytTmZ4Mvj0vPENSOck42JQVF5CuO0TOAWEtBVxW5hxaaqonmqoOFvy2gyd9JrVeRyEi7LuU1a+e3aoL0MowVLNBdGLmbrZ6jz2P/JVcV0TOa1mC2fklfHkXnNr89koRl9I+a0T+Pysld14vUPzp2Nxq9Cm3xQLOSiFd7k/vjjsJz7VdKSRjxqVA88+qiYnxUa6sIFv8ooyvvDD9vxuNBOv1swXYaRuVlZua3kpzB9t3rV33j44U74dK5mQHLx4nXNqnC9pCtX7pKLxL5f9IK66pvmkud+ug4vvjQMX817VhZ9JToe3377i341ZR7TvDltNAjQNs//eH4l1vb4XvwyWX1EpJZMVySK1d0O3sHyx0HoB0LIJe1dK/e0uIuEqF+P8YDYyOJBi8b0LR8ysd4/eved5ogDHtCcD/Uv5dV2ZI7Nib8kFjS9JoNpMRPNk5rjrFyc4Pi2pmwlfdaEWbiy7j3UHv2huqqcLDc5YmBRo21/saJ8gxj4JSrJDfY0L3zq15Vo9uAI+eMllODsH+tx7cQBNW2+MFnTau7Qbv0Qen9/JF4KBy0sK8ttmTUBQ+auQten35AbpU8VGra+07tc1GjxQhhGhwzBIvFOMWmc5joSolfWvisYv47ao96X2YhJslhdXySsDtc2fyL515swT8aRGdx0H+i2zr1pd/j11Czio2siPWKfgZBPENMfAWLRWf2nFsgBQ/inw8xtukyXW5iLRh4h+DPmn3Ll48RM4HYSsAoKCtK5W/z9/YWZVpjsbqOjBSU0EqfRs76jkbu9MKeRCY4eEPpOea+zMl7L0i6bXpOiRVokMHUE1pKXQAu1pj77ldCaA+QctL7gpTlfWnVNjvIri7K0yzflpxXhpB1rz4ObSqsfTvXSqu6EhJQK5dcvT//4jVbTYWtli7eOfqIfJTUseo86X5i1aUGRtpPmZJcaUgMjk7K5jrQrMqUWivKUleTm5r3ZdPTeL1kDcpNiRFE6t0yZRZOW7BPSBIkXzyIvS7N4rMxMZiag+Wqv2iFIjo5EVopmysOcrB1978F7bV9Gv9/HgIRXRRzda1Z2Gk1atx/Fu+7eteRgWVkEaG75ZK2gQRkNzHXLNLeE0tPRgrLBdfpLS8Lov6YgIcd8ZqWXzLFMoOoIWKSgrrrTrfySfywW1JOf/KzyC7fwEumVF3oPN6/QcI7dwpt+1zdP03fWou806zbuJiAe4mdT6bfOo9KjkV8Oa8LdxIjP1bIIWJzp27LwlN0a+gET0qjvRkeLymhjd+cRuJv7jn46lH8+9M67Zu/mFrNGfTf3Pp87E2ACTIAJWDwB3WWzFt9cbiATYAJMgAkwgbuLgIGgvt0Lye4u/Hy2TIAJMAEmwARKJ2AgqGnV9+1wt6ve23GuXCcTYAJMgAkwAXMJGAhqczNyOibABJgAE2ACTKDqCbCgrnrGXAMTYAJMgAkwgQoTYEFdYXSckQkwASbABJhA1RNgQV31jO/YGugzjYM+WVau9g/7Yh2aPjC8XHksObFHzdry5z9pfye67lPfQbdn3i5X06tbH5br5DkxE7BAAiyoK6FTGvmFYNnY+XA14yMflVDdLSvCp34T1BQfeyiPow9F+DYo/aMjz/wagTZDJ5Wn2CpPW7d9D0zdHik/jKFdmaP4rGSNoHpw8vDSDr5j/DWbt0Ng83vL1d47tQ/LdZKcmAncQQRYUBvpLA8nd6NC18/VB/Y2dgY5bMRvUNPvatPPMt6MM1Wvk50jnMXvTFe2s7a1hU/9xia/MvXP/Pfwdf/GRqt19w8S3z52MxpHgVQ2pTHm6FOPtg7l+/KRo6OjsaLKFUZt8q7bULZNP6O1nehX0YdW4tOippyDq4cQ2OJb0EYcsfAMDjESUxJEv1VOvKkdleXKqnf55Aex4ukBRqu71X1otBEcyASYQJkELOaXyW73x0BmhU2Hm/gQiL346EeAm58E9+2/P2LX+T3o3qAzJnZ+TPyuteYhvjtyH+b9swi21rb46THNV4K0SZ++Ho53t81BLY+a+L+Bb+PFjf/DlRvX4CDK/mH0l/jozy9x9MpJmcVUvRHxF2Xe8LgLaCg0dvrQx46If7Dwv6XaVRn4bcRHEqb8chYkZI+uW6QTP2ntYdAXnTa9Pg4D3lmAep16a+JF2XsWfYJDK76RxwGNW2PYl+ulvyA3R0dY2zk5Y/TC3+HmFyjjM5MTQB+GmPdAA3lM2nJ6QoxGSAvBR190+mlcTxTm52PSuiNwdKsh0yn/CvLz8PWDDZVDo3tnZ2csX75cfPAkAsuWLcPhw4eNpistkMy/rR4ZK4UxpTu5ZSl2fj4LNvYOkpd+3oTIsyAh59+4FYZ/uQFJl8+Lj1+IcxSs6GtXW9/WfNWMNG0yFdM3p8kRr42vPo6rx/fJYxoYPLpgGy78uw0hncNk/bmZGfj2keYy3ti/Rr0Ggj6JuXCo+AxlSrKaxN7ZFZM3nsDOz17Dhd3bSq2325Q30WrQOJk3/vwpHWFd1X04Y8YM8enV7ggPD8fMmTPV9rOHCTCBihEwrT5UrLw7Npe10HZqewYhJSsNb//6CT74/XPEii8/1XT3x+Quj+PE1dOYuvY1LN63HPfV7yDT5osPGoxb+pwUvHTi09bNkseUlxxp2dqOPi1ITlvzNlWvktfTuQZe3vQu/r7wH3qGdlUHC9rlavsL8nKRnZ6C2vd20w4GCXASqJcP70aHsdOkkD62fjGWjL0fV47tld9DVr79G3vuOBaN6CA/yaiEKYW1eGiMFNJ7F8/B1nemSMFrba17Gbn6BuK395/Dri/egHtAMOqTgBJu8ajO+HZgSynsDi7/WvoXDG6tFG1yn5WVhVWrVsHX1xdvv/02VqxYgcmTJ8PNzbRGr10YmeJbDXwcseEnpMC6fvowmg8YDRqQkGClNm3/UPMZUvrEJB2vmjpQuwg4CXZrpg3Dpf07pcBVtOKHZi+Gm7Ac7Jj7KlY+87Bk33P6B2peq2I29Tr2xrENP0jhf2LTEjXemOfif3/I4PpddD93qQysLuz+DWXV++/Cj2Qf0kCJBiParqr70LbYYqDstetmPxNgAuUnoPuELX/+apfj/e1zcS7uPI5fO40zseHo1bCrPMekzGT0b9pbCm4S0A831zxEs/NzkFv8uc2svGzQMcWX1+nXq+Rff/wXXE6+gvXHt0rB38C3vhJlcp9w4TR8Q5pKk/az2y9I7axOu/tl+ojCFfJ4AAALXUlEQVSdm9EkbKj8drCzpy86jX8RuZnpIHN08/6jZBr6rnBGUpz4JGOGQR0NuvaTWt6BZV/hwj+/IvbcMYM0sWePIGLXFpzY/DNIY67fuY9MQ99ezs1I0/Gb89lHsiYsXbpUfNf7cTzzzDM4evQowsLC8PPPP+PJJ580qF8/gBbFkdv+4TSQdvnb7KnyuEnfoXJPbcrL1nx+MicjVbaRBLi2O7JmIWJOHcQeIQDJRF77Hs1AyL9hC8EvDcFtuqDtsCeRLTRgzZy2rok8Sgj4v79+B6Sp7/le9zva2vWQn/ojJz0VdcRgi/pt6u8XJcO67bvLz2SSll1WvdR+6kOyZOi7qu7Dbdu2YfPmzVi3bp1+1XzMBJhABQjYViBPtc1yPTUOuQW6n2z0FfPS5LycSx68J6+dRbQwZVeWM1avUvb5hEvSm5KVKvcuDs5KlMn9pX27ENSqE0Lu6yt0eCsEt70P+eLBTYKSHt4OwvxMD3C3gJI55OtnjxoVzPqVkBBKiYlSg5OFSVh/wVnChTNqfEFubqlz2WpCMz35ot25osyCggLYiXllGzHAKMu5eAdILf7GlYsyaVrcNRSK/K4+mm+El5Wf4q+e2K/JGx8j9zRXTRYKEtpFoiyFZZ5gTCztXdx1zNbndmyU+cz9lxB5Bn4NW2q+XS4GKjS48q7XCIlR4eWq11h9Vd2Hx44dA23smAATqBwCLKi1OJI2rO/iMxJl0Ld7luBGVop+tDwmjY+c/kKzzNwsGU6LxGiOur6PZh5TBmr9M1avEq2UrRybs4/YtRn3TX4NHR6fjov7dqBuhx4Iat1JzrNS/hxhGidBs3rqIHOK00mTJASFJ83VFjvveoaLzcxps745VinP2J6mAUaMGIG+ffvC29tbfFY0G3/99ZfUqFNSjPeJdjkZibFSoNI8csq1KCGgA6QFIT3hupqMhC05WwcTi/YKC9W0iic7Vcwfi75PEeblslhm3UhSsuns+/fvjwceeADJycl488031bioA38Ja8dMBDk44sz2NagnrBL2Tq4I37EJ5alXLVDLU9V92KBBA3Tu3BnR0dHYuXOnVs3sZQJMoCIE2PRdBrVdEf/KFJM7j4W/m69cENarYTc0DWio5iStl4TTgGZhcrW4XfHKcDKX5wiz+INNesLH1Rsj25ZfMKqVlMNDAoi0Z1r8dHLzUqTGRIPeA44+tFuWEi60OxJI9z/7PymwaWFY75kfq68g0bw0zWkr89Pkp41cuDCd04KwHs/PRushE+DXqIUML8+/zBuJaNj9IblKmhZIleWcnJwwatQo3LhxA7Nnz8bw4cMxb948mCOkqexzOzbIKvq8NEeapWmhlnY4+aOP7JFCt+MTL8hXtEwKbJmz5F88ab7ilbTWg8fL1dwB4nW2njM+LElQhq9p06aoU6cOmjXTfaWNpg6sxOJFWqy2Qywec3B1l+WHi0EYubLqpTl02WdikEMDHfIr8+pV3Yc9evTA0KFDMXr06DLOnqOZABMwhwBr1FqUaG5W35EmTCutx3Uchc8GvyejC0S6z3bOV5PmCXM5rcgOa9wdfZv0wNnYCPzvt/+T8b+d2SHns+8JboULxWZsNWOxx1i9+mnKe5wcHSlMpY3l4qegNp3ke8v08CdHc6Q+Yg67pVgFTRs5WoS294dPpX/U/F+kmVUeiH9Ttp6T3qUTw3Bq6wr5gybNBzwq57nJjKysAFfS6+411gbtsEMr56PLxFcwZtEf0gQ/78FQ7WgDf2ZmphTUtK+Io5Xup35diWYPjpA/XkJlnP1jPa6dOKAWRwMbWs0d2q0fQu/vj8RL4aCFZWW5LbMmYMjcVej69Btyo/S0gMvQGXIwTFMSQmVQn6TFXpWMki5FoEZwfSRFRchEZdX71ObTsLG1UwukPqTyvu7XqMr70N3dXdablqZZj6A2gj1MgAlUiAC/nmUmNprr9Xf3lanjxGrwQiNC3VRR9B40vfalzDObSnerw8n8TCuis8QrVikxl8tVPWlnNM89/KuNIK345/G9ypX/diQmLdknpAkSL56Vi7Iqsw00X+1VOwQ0QMpKMW7mrsz6lLJupt6q6sNFixbBx8dHvppFr2ixYwJM4OYIsEZtJr8iFIEWfVXE0Wpw2izN0cpgelWpPI7mtkd//yeixWte7jWD5epjRRMvTzm3Iy1pzeU9X3PbSfPG104eNDd5paWrSL1V3YeFYj7/4MGD8j3qSjtRLogJ3MUEWFDfxZ1fkVPPzcrE9TOHxbxsc/nDJutmjlJ/3KMi5XGeW0+gqvtw4sSJt/6kuEYmUI0JsOm7GncunxoTYAJMgAnc+QR41fed34d8BkyACTABJlCNCViMoI6NFe+6smMCTIAJMAEmwAR0CFiMoNZpFR8wASbABJgAE2ACkgALar4QmAATYAJMgAlYMAGLWvXd0bct7K0dcCYlHPHZmp/utGB23DQmwASYABNgAlVOwKIEdXPPJngoOAye9h4YsnMCC+sq736ugAkwASbABCydgEWZvheGL8WYv5+RzJp4lPyWtqVD5PYxASbABJgAE6gqAhYlqOkk0/LSUVBUAGdbE18xqioSXC4TYAJMgAkwAQskYHGCmhiRoHaydbRAXNwkJsAEmAATYAK3loBFCuqzKefRN7A7athrvsJza5FwbUyACTABJsAELIeARQrqOSfnI8ilJjb1WoLXW06zHFrcEibABJgAE2ACt5iARa36Vs79qcZjkVeYj+n73xSvamm+v6vE8Z4JMAEmwASYwN1EwCI16nu8W2LNpc04lHgcmflZd1N/8LkyASbABJgAE9AhYJGC2sbKBok5N3QaygdMgAkwASbABO5GAhYnqAOc/ECCOi474W7sDz5nJsAEmAATYAI6BCxqjvrdNi/j/oBOSM5NwdGkEzoN5QMmwASYABNgAncjAaugoKAi7RP39/fH7frkZC3nABQWFSE2O17sC7WbxX4mwASYABNgAnclAYvSqK9mXr8rO4FPmgkwASbABJiAKQIWN0dtqqEczgSYABNgAkzgbiTAgvpu7HU+ZybABJgAE7hjCBgI6ts1P33HEOOGMgEmwASYABO4hQQMBPUtrJurYgJMgAkwASbABMogwIK6DEAczQSYABNgAkzgdhIwuur7iYec4eJohe37chBxOf92to/rZgJMgAkwASZwVxMwqlF3a+OAGaNdseMbH4TWNirL72pofPJMgAkwASbABG4VAaOCevw7yegyQfMTnmEdHG5VW7geJsAEmAATYAJMQI+AUUFNaa4nFkD8SBjcXEwm0SuKD5kAE2ACTIAJMIHKJlCqFKbfFnV3tjJa58aNG7Fp0ybUqlXLaDwHMgEmwASYABNgAjdPoFRBHZdUgAc6OyLY38agJisrjQBX9gYJOIAJMAEmwASYABO4aQKlCuppc1JQw80Kexb5YusX3jqVrV27Fps3b0ZSUpJOOB8wASbABJgAE2AClUfA4OtZ2kX/vcAXgT7WePPbNGz7LxuJKfxFK20+7GcCTIAJMAEmUNUESn33qk5NG2zYlYVlv2UatGPIkCFwcXGRWnVycrJBPAcwASbABJgAE2ACN0+gVEFNs9AxCca16DFjxsDGxgYnT54EC+qb7wgugQkwASbABJiAMQIm56hbNLADrRe7dM3wl8msra1BG7n4+Hhj5XIYE2ACTIAJMAEmUAkEjGrUyi+S5eYVYfUfWQbVtGvXTghxK0RFRSE6OtogngOYABNgAkyACTCByiFgVFC/8FkKCoTF+/TFPLnXryo4OBipqan4/PPP9aP4mAkwASbABJgAE6hEAqWu+q7EergoJsAEmAATYAJMoAIETM5RV6AszsIEmAATYAJMgAlUMgEW1JUMlItjAkyACTABJlCZBP4fuWehHgFmwOIAAAAASUVORK5CYII=;" vertex="1" parent="yN8PTlbwVzgZu-tWdrXP-5">
          <mxGeometry x="150" y="135" width="353.89" height="130" as="geometry" />
        </mxCell>
        <mxCell id="yN8PTlbwVzgZu-tWdrXP-21" value="map&amp;lt;int, Node*&amp;gt; Ladder[101];&amp;nbsp;" style="rounded=0;whiteSpace=wrap;html=1;" vertex="1" parent="1">
          <mxGeometry x="120" y="492" width="500" height="148" as="geometry" />
        </mxCell>
        <mxCell id="yN8PTlbwVzgZu-tWdrXP-26" value="&lt;div style=&quot;color: rgb(212, 212, 212); background-color: rgb(30, 30, 30); font-family: Menlo, Monaco, &amp;quot;Courier New&amp;quot;, monospace; font-weight: normal; font-size: 15px; line-height: 23px;&quot;&gt;&lt;div&gt;void &lt;span style=&quot;color: #dcdcaa;&quot;&gt;init&lt;/span&gt;()&lt;/div&gt;&lt;/div&gt;" style="swimlane;whiteSpace=wrap;html=1;" vertex="1" parent="1">
          <mxGeometry x="80" y="780" width="680" height="320" as="geometry" />
        </mxCell>
        <mxCell id="yN8PTlbwVzgZu-tWdrXP-28" value="Ladder 초기화" style="whiteSpace=wrap;html=1;" vertex="1" parent="yN8PTlbwVzgZu-tWdrXP-26">
          <mxGeometry x="20" y="50" width="120" height="60" as="geometry" />
        </mxCell>
        <mxCell id="yN8PTlbwVzgZu-tWdrXP-29" value="&lt;div style=&quot;color: rgb(212, 212, 212); background-color: rgb(30, 30, 30); font-family: Menlo, Monaco, &amp;quot;Courier New&amp;quot;, monospace; font-weight: normal; font-size: 15px; line-height: 23px;&quot;&gt;int &lt;span style=&quot;color: #dcdcaa;&quot;&gt;numberOfCross&lt;/span&gt;(&lt;span style=&quot;color: #569cd6;&quot;&gt;int&lt;/span&gt; &lt;span style=&quot;color: #9cdcfe;&quot;&gt;mID&lt;/span&gt;)&lt;/div&gt;" style="swimlane;whiteSpace=wrap;html=1;" vertex="1" parent="1">
          <mxGeometry x="900" y="640" width="710" height="380" as="geometry" />
        </mxCell>
        <mxCell id="yN8PTlbwVzgZu-tWdrXP-31" value="Node* start = Ladder[mID].begin().second" style="whiteSpace=wrap;html=1;" vertex="1" parent="yN8PTlbwVzgZu-tWdrXP-29">
          <mxGeometry x="40" y="50" width="260" height="70" as="geometry" />
        </mxCell>
        <mxCell id="yN8PTlbwVzgZu-tWdrXP-34" value="start -&amp;gt; next&amp;nbsp; != nullptr 인 동안 반복" style="swimlane;horizontal=0;whiteSpace=wrap;html=1;" vertex="1" parent="yN8PTlbwVzgZu-tWdrXP-29">
          <mxGeometry x="330" y="70" width="300" height="220" as="geometry" />
        </mxCell>
        <mxCell id="yN8PTlbwVzgZu-tWdrXP-35" value="start = start.next" style="whiteSpace=wrap;html=1;" vertex="1" parent="yN8PTlbwVzgZu-tWdrXP-34">
          <mxGeometry x="30" y="50" width="260" height="70" as="geometry" />
        </mxCell>
        <mxCell id="yN8PTlbwVzgZu-tWdrXP-37" value="count ++&amp;nbsp;" style="whiteSpace=wrap;html=1;" vertex="1" parent="yN8PTlbwVzgZu-tWdrXP-34">
          <mxGeometry x="30" y="140" width="120" height="60" as="geometry" />
        </mxCell>
        <mxCell id="yN8PTlbwVzgZu-tWdrXP-46" value="return count" style="whiteSpace=wrap;html=1;" vertex="1" parent="yN8PTlbwVzgZu-tWdrXP-29">
          <mxGeometry x="360" y="310" width="120" height="60" as="geometry" />
        </mxCell>
        <mxCell id="yN8PTlbwVzgZu-tWdrXP-36" value="int count&amp;nbsp; = 0" style="whiteSpace=wrap;html=1;" vertex="1" parent="1">
          <mxGeometry x="990" y="790" width="120" height="60" as="geometry" />
        </mxCell>
        <mxCell id="yN8PTlbwVzgZu-tWdrXP-38" value="&lt;div style=&quot;color: rgb(212, 212, 212); background-color: rgb(30, 30, 30); font-family: Menlo, Monaco, &amp;quot;Courier New&amp;quot;, monospace; font-weight: normal; font-size: 15px; line-height: 23px;&quot;&gt;int &lt;span style=&quot;color: #dcdcaa;&quot;&gt;participant&lt;/span&gt;(&lt;span style=&quot;color: #569cd6;&quot;&gt;int&lt;/span&gt; &lt;span style=&quot;color: #9cdcfe;&quot;&gt;mX&lt;/span&gt;, &lt;span style=&quot;color: #569cd6;&quot;&gt;int&lt;/span&gt; &lt;span style=&quot;color: #9cdcfe;&quot;&gt;mY&lt;/span&gt;)&lt;/div&gt;" style="swimlane;whiteSpace=wrap;html=1;" vertex="1" parent="1">
          <mxGeometry x="900" y="1060" width="680" height="370" as="geometry" />
        </mxCell>
        <mxCell id="yN8PTlbwVzgZu-tWdrXP-41" value="start -&amp;gt; before&amp;nbsp; != nullptr 인 동안 반복" style="swimlane;horizontal=0;whiteSpace=wrap;html=1;" vertex="1" parent="yN8PTlbwVzgZu-tWdrXP-38">
          <mxGeometry x="60" y="120" width="300" height="220" as="geometry" />
        </mxCell>
        <mxCell id="yN8PTlbwVzgZu-tWdrXP-42" value="start = start.before" style="whiteSpace=wrap;html=1;" vertex="1" parent="yN8PTlbwVzgZu-tWdrXP-41">
          <mxGeometry x="30" y="50" width="260" height="70" as="geometry" />
        </mxCell>
        <mxCell id="yN8PTlbwVzgZu-tWdrXP-43" value="return start.x" style="whiteSpace=wrap;html=1;" vertex="1" parent="yN8PTlbwVzgZu-tWdrXP-38">
          <mxGeometry x="480" y="220" width="120" height="60" as="geometry" />
        </mxCell>
        <mxCell id="yN8PTlbwVzgZu-tWdrXP-39" value="Node* start = Ladder[mID].upperbound(mY).second" style="whiteSpace=wrap;html=1;" vertex="1" parent="yN8PTlbwVzgZu-tWdrXP-38">
          <mxGeometry x="30" y="40" width="340" height="60" as="geometry" />
        </mxCell>
        <mxCell id="yN8PTlbwVzgZu-tWdrXP-47" value="&lt;div style=&quot;color: rgb(212, 212, 212); background-color: rgb(30, 30, 30); font-family: Menlo, Monaco, &amp;quot;Courier New&amp;quot;, monospace; font-weight: normal; font-size: 15px; line-height: 23px;&quot;&gt;void &lt;span style=&quot;color: #dcdcaa;&quot;&gt;add&lt;/span&gt;(&lt;span style=&quot;color: #569cd6;&quot;&gt;int&lt;/span&gt; &lt;span style=&quot;color: #9cdcfe;&quot;&gt;mX&lt;/span&gt;, &lt;span style=&quot;color: #569cd6;&quot;&gt;int&lt;/span&gt; &lt;span style=&quot;color: #9cdcfe;&quot;&gt;mY&lt;/span&gt;)&lt;/div&gt;" style="swimlane;whiteSpace=wrap;html=1;" vertex="1" parent="1">
          <mxGeometry x="110" y="1200" width="670" height="460" as="geometry" />
        </mxCell>
        <mxCell id="yN8PTlbwVzgZu-tWdrXP-48" value="Node* left = Ladder[mX].upperbound(mY).second" style="whiteSpace=wrap;html=1;" vertex="1" parent="yN8PTlbwVzgZu-tWdrXP-47">
          <mxGeometry x="20" y="60" width="340" height="60" as="geometry" />
        </mxCell>
        <mxCell id="yN8PTlbwVzgZu-tWdrXP-49" value="Node* right = Ladder[mX + 1].upperbound(mY).second" style="whiteSpace=wrap;html=1;" vertex="1" parent="yN8PTlbwVzgZu-tWdrXP-47">
          <mxGeometry x="20" y="130" width="340" height="60" as="geometry" />
        </mxCell>
        <mxCell id="yN8PTlbwVzgZu-tWdrXP-50" value="Node* new xNode(x, val)" style="whiteSpace=wrap;html=1;" vertex="1" parent="yN8PTlbwVzgZu-tWdrXP-47">
          <mxGeometry x="30" y="210" width="120" height="60" as="geometry" />
        </mxCell>
        <mxCell id="yN8PTlbwVzgZu-tWdrXP-51" value="Node* new yNode(x, val)" style="whiteSpace=wrap;html=1;" vertex="1" parent="yN8PTlbwVzgZu-tWdrXP-47">
          <mxGeometry x="180" y="210" width="120" height="60" as="geometry" />
        </mxCell>
        <mxCell id="yN8PTlbwVzgZu-tWdrXP-54" value="둘다 1, 2먼저, 3 4 나중" style="whiteSpace=wrap;html=1;" vertex="1" parent="yN8PTlbwVzgZu-tWdrXP-47">
          <mxGeometry x="560" y="340" width="120" height="60" as="geometry" />
        </mxCell>
        <mxCell id="yN8PTlbwVzgZu-tWdrXP-72" value="지금 생성된 노드의 영향을 받을 애들은 이 이후 노드의 이전값에 해당하는 노드들이다" style="whiteSpace=wrap;html=1;" vertex="1" parent="yN8PTlbwVzgZu-tWdrXP-47">
          <mxGeometry x="380" y="60" width="250" height="80" as="geometry" />
        </mxCell>
        <mxCell id="yN8PTlbwVzgZu-tWdrXP-74" value="yNode.next = left&lt;br&gt;yNode.before = right.before" style="whiteSpace=wrap;html=1;" vertex="1" parent="yN8PTlbwVzgZu-tWdrXP-47">
          <mxGeometry x="30" y="360" width="240" height="60" as="geometry" />
        </mxCell>
        <mxCell id="yN8PTlbwVzgZu-tWdrXP-75" value="right.before = xNode&lt;br&gt;left.before.next = xNode" style="whiteSpace=wrap;html=1;" vertex="1" parent="yN8PTlbwVzgZu-tWdrXP-47">
          <mxGeometry x="280" y="290" width="240" height="60" as="geometry" />
        </mxCell>
        <mxCell id="yN8PTlbwVzgZu-tWdrXP-85" value="left.before = yNode&lt;br&gt;right.before.next = yNode" style="whiteSpace=wrap;html=1;" vertex="1" parent="yN8PTlbwVzgZu-tWdrXP-47">
          <mxGeometry x="280" y="360" width="240" height="60" as="geometry" />
        </mxCell>
        <mxCell id="yN8PTlbwVzgZu-tWdrXP-86" value="tmp = right" style="whiteSpace=wrap;html=1;" vertex="1" parent="yN8PTlbwVzgZu-tWdrXP-47">
          <mxGeometry x="340" y="210" width="120" height="60" as="geometry" />
        </mxCell>
        <mxCell id="yN8PTlbwVzgZu-tWdrXP-63" value="&lt;div style=&quot;color: rgb(212, 212, 212); background-color: rgb(30, 30, 30); font-family: Menlo, Monaco, &amp;quot;Courier New&amp;quot;, monospace; font-weight: normal; font-size: 15px; line-height: 23px;&quot;&gt;void &lt;span style=&quot;color: #dcdcaa;&quot;&gt;remove&lt;/span&gt;(&lt;span style=&quot;color: #569cd6;&quot;&gt;int&lt;/span&gt; &lt;span style=&quot;color: #9cdcfe;&quot;&gt;mX&lt;/span&gt;, &lt;span style=&quot;color: #569cd6;&quot;&gt;int&lt;/span&gt; &lt;span style=&quot;color: #9cdcfe;&quot;&gt;mY&lt;/span&gt;)&lt;/div&gt;" style="swimlane;whiteSpace=wrap;html=1;" vertex="1" parent="1">
          <mxGeometry x="110" y="1730" width="720" height="510" as="geometry" />
        </mxCell>
        <mxCell id="yN8PTlbwVzgZu-tWdrXP-64" value="rn" style="whiteSpace=wrap;html=1;" vertex="1" parent="yN8PTlbwVzgZu-tWdrXP-63">
          <mxGeometry x="114" y="60" width="340" height="60" as="geometry" />
        </mxCell>
        <mxCell id="yN8PTlbwVzgZu-tWdrXP-65" value="Node* right = Ladder[mX + 1].find(mY).second" style="whiteSpace=wrap;html=1;" vertex="1" parent="yN8PTlbwVzgZu-tWdrXP-63">
          <mxGeometry x="114" y="130" width="340" height="60" as="geometry" />
        </mxCell>
        <mxCell id="yN8PTlbwVzgZu-tWdrXP-67" value="right.before.next = left.next" style="whiteSpace=wrap;html=1;" vertex="1" parent="yN8PTlbwVzgZu-tWdrXP-63">
          <mxGeometry x="460" y="210" width="120" height="60" as="geometry" />
        </mxCell>
        <mxCell id="yN8PTlbwVzgZu-tWdrXP-68" value="right.next.before = left.before" style="whiteSpace=wrap;html=1;" vertex="1" parent="yN8PTlbwVzgZu-tWdrXP-63">
          <mxGeometry x="190" y="280" width="150" height="70" as="geometry" />
        </mxCell>
        <mxCell id="yN8PTlbwVzgZu-tWdrXP-66" value="left.before.next = right.next" style="whiteSpace=wrap;html=1;" vertex="1" parent="yN8PTlbwVzgZu-tWdrXP-63">
          <mxGeometry x="210" y="210" width="120" height="60" as="geometry" />
        </mxCell>
        <mxCell id="yN8PTlbwVzgZu-tWdrXP-69" value="left.next.before = right.before" style="whiteSpace=wrap;html=1;" vertex="1" parent="yN8PTlbwVzgZu-tWdrXP-63">
          <mxGeometry x="454" y="280" width="150" height="70" as="geometry" />
        </mxCell>
        <mxCell id="yN8PTlbwVzgZu-tWdrXP-70" value="요소 두개 지우기" style="whiteSpace=wrap;html=1;" vertex="1" parent="yN8PTlbwVzgZu-tWdrXP-63">
          <mxGeometry x="184" y="390" width="120" height="60" as="geometry" />
        </mxCell>
        <mxCell id="yN8PTlbwVzgZu-tWdrXP-52" value="xNode.next = right.next&lt;br&gt;right.before = xNode&lt;br&gt;xNode.before = left&lt;br&gt;left.next = xNode" style="whiteSpace=wrap;html=1;" vertex="1" parent="1">
          <mxGeometry x="-280" y="1480" width="360" height="80" as="geometry" />
        </mxCell>
        <mxCell id="yN8PTlbwVzgZu-tWdrXP-53" value="yNode.next = left.next&lt;br&gt;left.before = yNode&lt;br&gt;yNode.before = right&lt;br&gt;right.next = yNode" style="whiteSpace=wrap;html=1;" vertex="1" parent="1">
          <mxGeometry x="-280" y="1560" width="360" height="90" as="geometry" />
        </mxCell>
        <mxCell id="yN8PTlbwVzgZu-tWdrXP-73" value="xNode.next = right&lt;br&gt;xNode.before = left.before" style="whiteSpace=wrap;html=1;" vertex="1" parent="1">
          <mxGeometry x="140" y="1490" width="240" height="60" as="geometry" />
        </mxCell>
      </root>
    </mxGraphModel>
  </diagram>
</mxfile>
